<mxfile host="app.diagrams.net" modified="2024-03-29T03:23:08.643Z" agent="Mozilla/5.0 (Windows NT 10.0; Win64; x64) AppleWebKit/537.36 (KHTML, like Gecko) Chrome/123.0.0.0 Safari/537.36 Edg/123.0.0.0" etag="R9KOQdU5AA7fiGjVCKNI" version="24.1.0" type="github">
  <diagram name="第 1 页" id="ienX84fGjh2YYDBB3UxZ">
    <mxGraphModel dx="1213" dy="738" grid="1" gridSize="10" guides="1" tooltips="1" connect="1" arrows="1" fold="1" page="1" pageScale="1" pageWidth="827" pageHeight="1169" math="0" shadow="0">
      <root>
        <mxCell id="0" />
        <mxCell id="1" parent="0" />
        <mxCell id="D7arQBQFJkvoPhe-ZoG7-1" value="" style="ellipse;whiteSpace=wrap;html=1;" vertex="1" parent="1">
          <mxGeometry x="90" y="210" width="660" height="400" as="geometry" />
        </mxCell>
        <mxCell id="D7arQBQFJkvoPhe-ZoG7-4" value="" style="endArrow=none;dashed=1;html=1;rounded=0;" edge="1" parent="1" target="D7arQBQFJkvoPhe-ZoG7-1">
          <mxGeometry width="50" height="50" relative="1" as="geometry">
            <mxPoint x="370" y="400" as="sourcePoint" />
            <mxPoint x="420" y="350" as="targetPoint" />
            <Array as="points">
              <mxPoint x="110" y="350" />
              <mxPoint x="640" y="450" />
            </Array>
          </mxGeometry>
        </mxCell>
        <mxCell id="D7arQBQFJkvoPhe-ZoG7-5" value="" style="endArrow=none;dashed=1;html=1;dashPattern=1 3;strokeWidth=2;rounded=0;" edge="1" parent="1">
          <mxGeometry width="50" height="50" relative="1" as="geometry">
            <mxPoint x="390" y="410" as="sourcePoint" />
            <mxPoint x="440" y="360" as="targetPoint" />
            <Array as="points">
              <mxPoint x="220" y="570" />
              <mxPoint x="570" y="240" />
            </Array>
          </mxGeometry>
        </mxCell>
        <mxCell id="D7arQBQFJkvoPhe-ZoG7-6" value="区域" style="text;strokeColor=none;fillColor=none;html=1;fontSize=24;fontStyle=1;verticalAlign=middle;align=center;" vertex="1" parent="1">
          <mxGeometry x="290" y="260" width="100" height="40" as="geometry" />
        </mxCell>
        <mxCell id="D7arQBQFJkvoPhe-ZoG7-7" value="人员" style="text;strokeColor=none;fillColor=none;html=1;fontSize=24;fontStyle=1;verticalAlign=middle;align=center;" vertex="1" parent="1">
          <mxGeometry x="550" y="460" width="100" height="40" as="geometry" />
        </mxCell>
        <mxCell id="D7arQBQFJkvoPhe-ZoG7-8" value="考勤" style="text;strokeColor=none;fillColor=none;html=1;fontSize=24;fontStyle=1;verticalAlign=middle;align=center;" vertex="1" parent="1">
          <mxGeometry x="120" y="380" width="100" height="40" as="geometry" />
        </mxCell>
        <mxCell id="D7arQBQFJkvoPhe-ZoG7-9" value="告警" style="text;strokeColor=none;fillColor=none;html=1;fontSize=24;fontStyle=1;verticalAlign=middle;align=center;" vertex="1" parent="1">
          <mxGeometry x="540" y="340" width="100" height="40" as="geometry" />
        </mxCell>
        <mxCell id="D7arQBQFJkvoPhe-ZoG7-10" value="人员" style="ellipse;whiteSpace=wrap;html=1;" vertex="1" parent="1">
          <mxGeometry x="370" y="440" width="140" height="70" as="geometry" />
        </mxCell>
        <mxCell id="D7arQBQFJkvoPhe-ZoG7-12" value="采集卡" style="ellipse;whiteSpace=wrap;html=1;" vertex="1" parent="1">
          <mxGeometry x="300" y="515" width="120" height="70" as="geometry" />
        </mxCell>
        <mxCell id="D7arQBQFJkvoPhe-ZoG7-13" value="来宾" style="rounded=1;whiteSpace=wrap;html=1;" vertex="1" parent="1">
          <mxGeometry x="420" y="490" width="50" height="20" as="geometry" />
        </mxCell>
        <mxCell id="D7arQBQFJkvoPhe-ZoG7-14" value="资质" style="rounded=1;whiteSpace=wrap;html=1;" vertex="1" parent="1">
          <mxGeometry x="370" y="470" width="50" height="20" as="geometry" />
        </mxCell>
        <mxCell id="D7arQBQFJkvoPhe-ZoG7-15" value="班制班次" style="ellipse;whiteSpace=wrap;html=1;" vertex="1" parent="1">
          <mxGeometry x="120" y="435" width="90" height="45" as="geometry" />
        </mxCell>
        <mxCell id="D7arQBQFJkvoPhe-ZoG7-16" value="排班" style="ellipse;whiteSpace=wrap;html=1;" vertex="1" parent="1">
          <mxGeometry x="210" y="395" width="90" height="45" as="geometry" />
        </mxCell>
        <mxCell id="D7arQBQFJkvoPhe-ZoG7-17" value="日报周报" style="ellipse;whiteSpace=wrap;html=1;" vertex="1" parent="1">
          <mxGeometry x="180" y="477.5" width="90" height="45" as="geometry" />
        </mxCell>
        <mxCell id="D7arQBQFJkvoPhe-ZoG7-18" value="工作面" style="ellipse;whiteSpace=wrap;html=1;" vertex="1" parent="1">
          <mxGeometry x="180" y="280" width="110" height="50" as="geometry" />
        </mxCell>
        <mxCell id="D7arQBQFJkvoPhe-ZoG7-19" value="配置" style="ellipse;whiteSpace=wrap;html=1;" vertex="1" parent="1">
          <mxGeometry x="310" y="310" width="110" height="50" as="geometry" />
        </mxCell>
      </root>
    </mxGraphModel>
  </diagram>
</mxfile>
